<?xml version="1.0" encoding="utf-8"?>
<!-- Generator: Adobe Illustrator 16.0.0, SVG Export Plug-In . SVG Version: 6.00 Build 0)  -->
<!DOCTYPE svg PUBLIC "-//W3C//DTD SVG 1.1//EN" "http://www.w3.org/Graphics/SVG/1.1/DTD/svg11.dtd">
<svg version="1.1" xmlns="http://www.w3.org/2000/svg" xmlns:xlink="http://www.w3.org/1999/xlink" x="0px" y="0px"
	 width="992.125977px" height="992.125977px" viewBox="0 0 992.125977 992.125977"
	 enable-background="new 0 0 992.125977 992.125977" xml:space="preserve">
<g id="Layer_8" display="none">
	<rect x="70.866211" display="inline" fill="#8CC63F" width="850" height="1001"/>
</g>
<g id="Layer_5">
	<polygon fill="#E9E0D6" points="615.866211,878 495.866211,913.666992 377.866211,878 377.866211,113 495.866211,77.333008 
		615.866211,113 	"/>
</g>
<g id="Layer_7">
	<g>
		<polygon fill="#F2F2F2" points="401.866211,854.550781 401.866211,733 590.866211,733 590.866211,854.563477 
			495.856445,883.756836 		"/>
		<path d="M584.866211,739v111.5L495.365723,878l-88.499512-27.5V739H584.866211 M595.866211,728h-10.5h-178h-11.5v10.5v112
			v8.100586l7.98584,2.404297l88.624512,27.5l3.308594,1.007813l3.280273-0.998047l89.265625-27.5l7.535156-2.386719V850.5v-112V728
			L595.866211,728z"/>
	</g>
	<g>
		<path d="M426.35791,772.414063v-22.740234h3.168457v22.740234H426.35791z"/>
		<path d="M450.383789,751.522461l-1.716309,2.012695c-1.419434-1.154297-2.805176-1.682617-4.389648-1.682617
			c-3.432617,0-6.303711,2.310547-6.303711,9.174805c0,6.568359,2.739258,9.142578,6.270508,9.142578
			c2.145508,0,3.531738-0.957031,4.818848-1.914063l1.584473,2.013672c-1.221191,1.287109-3.432617,2.541016-6.501953,2.541016
			c-5.511719,0-9.505371-4.125-9.505371-11.783203c0-7.689453,4.290527-11.749023,9.438965-11.749023
			C446.951172,749.27832,448.568359,750.070313,450.383789,751.522461z"/>
		<path d="M457.741211,752.182617v7.426758h7.657227v2.507813h-7.657227v7.789063h9.439453v2.507813h-12.575195v-22.740234
			h12.311035l-0.363281,2.508789H457.741211z"/>
		<path d="M484.010254,772.414063l-9.241211-19.306641c0.164551,1.880859,0.428711,4.652344,0.428711,8.876953v10.429688h-2.9375
			v-22.740234h4.092773l9.340332,19.341797c-0.065918-0.529297-0.429199-4.15918-0.429199-6.931641v-12.410156h2.9375v22.740234
			H484.010254z"/>
		<path d="M510.080078,765.945313c0,4.818359-3.729492,6.46875-9.010742,6.46875h-6.270508v-22.740234h5.379883
			c5.611328,0,8.911133,1.783203,8.911133,5.743164c0,2.805664-2.045898,4.522461-4.256836,4.983398
			C507.472656,760.863281,510.080078,762.083984,510.080078,765.945313z M497.93457,759.311523h3.432617
			c2.541016,0,4.521484-1.253906,4.521484-3.663086c0-2.805664-2.012695-3.499023-5.379883-3.499023h-2.574219V759.311523z
			 M501.069336,769.90625c3.300781,0,5.710938-0.660156,5.710938-3.960938c0-3.201172-2.376953-4.224609-5.116211-4.224609
			h-3.729492v8.185547H501.069336z"/>
		<path d="M517.999023,752.182617v7.426758h7.65625v2.507813h-7.65625v7.789063h9.439453v2.507813h-12.576172v-22.740234h12.311523
			l-0.363281,2.508789H517.999023z"/>
		<path d="M535.65332,762.777344v9.636719h-3.136719v-22.740234h5.974609c5.676758,0,8.646484,2.178711,8.646484,6.436523
			c0,3.201172-1.649414,5.116211-4.916992,6.106445l6.138672,10.197266h-3.729492l-5.445313-9.636719H535.65332z
			 M538.821289,760.367188c3.167969,0,4.983398-1.1875,4.983398-4.256836c0-2.838867-1.617188-3.993164-5.34668-3.993164h-2.804688
			v8.25H538.821289z"/>
		<path d="M567.368164,751.787109l-1.848633,1.914063c-1.584961-1.287109-2.9375-1.848633-4.983398-1.848633
			c-3.267578,0-6.535156,2.475586-6.535156,9.174805c0,6.535156,2.210938,9.208984,6.205078,9.208984
			c1.517578,0,3.036133-0.296875,4.323242-1.056641v-6.832031h-4.026367l-0.363281-2.541016h7.492188v10.990234
			c-2.080078,1.22168-4.455078,2.013672-7.657227,2.013672c-5.643555,0-9.307617-3.927734-9.307617-11.783203
			c0-7.65625,4.6875-11.749023,9.802734-11.749023C563.539063,749.27832,565.420898,750.169922,567.368164,751.787109z"/>
	</g>
	<g>
		<path d="M458.550293,855.416992v-34.271484l-9.352051,5.879883l-1.231934-1.959961l10.975586-6.832031h2.184082v37.183594
			H458.550293z"/>
		<path d="M490.413574,826.857422c0,5.152344-3.304199,8.120117-7.503906,8.736328
			c4.703613,0.167969,8.511719,3.416016,8.511719,9.407227c0,6.44043-4.536133,11.032227-11.591797,11.032227
			c-4.312012,0-7.671875-1.624023-10.472168-4.759766l1.680176-1.456055c2.687988,2.912109,5.375977,3.919922,8.73584,3.919922
			c5.711914,0,8.959961-3.52832,8.959961-8.679688c0-5.824219-3.472168-8.232422-8.680176-8.232422h-2.351563l0.335938-2.12793
			h1.791992c3.975586,0,7.95166-2.351563,7.95166-7.727539c0-4.424805-2.967773-7.112305-7.503906-7.112305
			c-3.191895,0-5.711914,1.007813-8.456055,3.52832l-1.399902-1.624023c2.800293-2.744141,5.879883-4.144531,9.968262-4.144531
			C486.661621,817.617188,490.413574,821.59375,490.413574,826.857422z"/>
		<path d="M517.405273,826.857422c0,5.152344-3.304688,8.120117-7.503906,8.736328
			c4.703125,0.167969,8.511719,3.416016,8.511719,9.407227c0,6.44043-4.536133,11.032227-11.591797,11.032227
			c-4.3125,0-7.671875-1.624023-10.472168-4.759766l1.680176-1.456055c2.688477,2.912109,5.375977,3.919922,8.735352,3.919922
			c5.712891,0,8.960938-3.52832,8.960938-8.679688c0-5.824219-3.472656-8.232422-8.680664-8.232422h-2.351563l0.335938-2.12793
			h1.791992c3.976563,0,7.951172-2.351563,7.951172-7.727539c0-4.424805-2.966797-7.112305-7.503906-7.112305
			c-3.191406,0-5.710938,1.007813-8.455078,3.52832l-1.400391-1.624023c2.800781-2.744141,5.879883-4.144531,9.96875-4.144531
			C513.65332,817.617188,517.405273,821.59375,517.405273,826.857422z"/>
		<path d="M528.885742,855.80957l-2.464844-0.84082l14.616211-34.495117H523.34082v-2.240234h20.44043v2.072266
			L528.885742,855.80957z"/>
	</g>
	<g>
		<path d="M464.027832,784.744141l-0.350098,0.419922c-0.560547-0.40625-1.008789-0.587891-1.708984-0.587891
			c-1.470703,0-2.703613,0.994141-2.703613,3.487305c0,2.381836,1.190918,3.488281,2.675293,3.488281
			c0.854492,0,1.331055-0.280273,1.834961-0.658203l0.350586,0.433594c-0.518555,0.462891-1.20459,0.798828-2.213379,0.798828
			c-1.891113,0-3.319824-1.415039-3.319824-4.0625c0-2.674805,1.512695-4.047852,3.347656-4.047852
			C462.893066,784.015625,463.453613,784.295898,464.027832,784.744141z"/>
		<path d="M466.713867,788.456055V792h-0.644531v-7.858398h1.989258c1.975098,0,2.899414,0.742188,2.899414,2.128906
			c0,1.176758-0.686523,1.765625-1.834961,2.073242L471.40625,792h-0.78418l-2.143555-3.543945H466.713867z M468.100586,787.910156
			c1.414551,0,2.185059-0.504883,2.185059-1.639648c0-1.036133-0.630371-1.582031-2.269043-1.582031h-1.302734v3.22168H468.100586z"
			/>
		<path d="M475.422363,792h-0.658691v-3.067383l-2.633301-4.791016h0.714355l2.269043,4.230469l2.213379-4.230469h0.700195
			l-2.60498,4.776367V792z"/>
		<path d="M484.075195,784.898438l-0.364258,0.419922c-0.616211-0.545898-1.20459-0.742188-2.044922-0.742188
			c-1.092773,0-1.779297,0.518555-1.779297,1.344727c0,0.839844,0.490234,1.176758,1.905273,1.568359
			c1.541016,0.43457,2.493164,0.953125,2.493164,2.339844c0,1.400391-1.092285,2.296875-2.731445,2.296875
			c-1.162598,0-2.01709-0.40625-2.689453-0.994141l0.364258-0.420898c0.602539,0.490234,1.288574,0.854492,2.311523,0.854492
			c1.232422,0,2.072754-0.601563,2.072754-1.708984c0-1.007813-0.574219-1.400391-2.072754-1.820313
			c-1.666992-0.462891-2.325684-1.008789-2.325684-2.087891c0-1.120117,0.952637-1.932617,2.4375-1.932617
			C482.772461,784.015625,483.444824,784.337891,484.075195,784.898438z"/>
		<path d="M488.287598,784.71582V792h-0.644531v-7.28418h-2.465332v-0.574219h5.64502l-0.083984,0.574219H488.287598z"/>
		<path d="M492.010742,789.829102L491.268555,792h-0.658203l2.80127-7.858398h0.784668L496.983398,792h-0.686035l-0.742676-2.170898
			H492.010742z M493.790039,784.673828l-1.583008,4.608398h3.166016L493.790039,784.673828z"/>
		<path d="M502.989258,791.412109L502.890625,792h-4.020508v-7.858398h0.644531v7.270508H502.989258z"/>
		<path d="M509.455078,784.688477v3.109375h2.913086v0.532227h-2.913086V792h-0.644531v-7.858398h4.09082l-0.070313,0.546875
			H509.455078z"/>
		<path d="M515.55957,788.456055V792h-0.644531v-7.858398h1.988281c1.975586,0,2.900391,0.742188,2.900391,2.128906
			c0,1.176758-0.6875,1.765625-1.835938,2.073242L520.250977,792h-0.78418l-2.143555-3.543945H515.55957z M516.946289,787.910156
			c1.414063,0,2.18457-0.504883,2.18457-1.639648c0-1.036133-0.629883-1.582031-2.268555-1.582031h-1.302734v3.22168H516.946289z"/>
		<path d="M523.006836,784.688477v2.941406h2.96875v0.532227h-2.96875v3.291992h3.585938V792h-4.230469v-7.858398h4.160156
			l-0.083984,0.546875H523.006836z"/>
		<path d="M529.446289,784.688477v2.941406h2.969727v0.532227h-2.969727v3.291992h3.585938V792h-4.230469v-7.858398h4.160156
			l-0.083984,0.546875H529.446289z"/>
		<path d="M449.696289,808.799805v-7.858398h0.644531v7.858398H449.696289z"/>
		<path d="M458.364746,801.543945l-0.350098,0.419922c-0.560547-0.40625-1.008789-0.587891-1.708984-0.587891
			c-1.470703,0-2.703613,0.994141-2.703613,3.487305c0,2.381836,1.190918,3.488281,2.675293,3.488281
			c0.854492,0,1.331055-0.280273,1.834961-0.658203l0.350586,0.43457c-0.518555,0.461914-1.20459,0.797852-2.213379,0.797852
			c-1.891113,0-3.319824-1.415039-3.319824-4.0625c0-2.674805,1.512695-4.047852,3.347656-4.047852
			C457.22998,800.81543,457.790527,801.095703,458.364746,801.543945z"/>
		<path d="M461.050781,801.488281v2.941406h2.969238v0.532227h-2.969238v3.291992h3.585938v0.545898h-4.230469v-7.858398h4.160156
			l-0.083984,0.546875H461.050781z"/>
		<path d="M475.626465,801.543945l-0.350098,0.419922c-0.560547-0.40625-1.008789-0.587891-1.708984-0.587891
			c-1.470703,0-2.703613,0.994141-2.703613,3.487305c0,2.381836,1.190918,3.488281,2.675293,3.488281
			c0.854492,0,1.331055-0.280273,1.834961-0.658203l0.350586,0.43457c-0.518555,0.461914-1.20459,0.797852-2.213379,0.797852
			c-1.891113,0-3.319824-1.415039-3.319824-4.0625c0-2.674805,1.512695-4.047852,3.347656-4.047852
			C474.491699,800.81543,475.052246,801.095703,475.626465,801.543945z"/>
		<path d="M478.3125,805.255859v3.543945h-0.644531v-7.858398h1.989258c1.975098,0,2.899414,0.742188,2.899414,2.128906
			c0,1.176758-0.686523,1.765625-1.834961,2.073242l2.283203,3.65625h-0.78418l-2.143555-3.543945H478.3125z M479.699219,804.709961
			c1.414551,0,2.185059-0.504883,2.185059-1.639648c0-1.036133-0.630371-1.582031-2.269043-1.582031H478.3125v3.22168H479.699219z"
			/>
		<path d="M485.760254,801.488281v2.941406h2.969238v0.532227h-2.969238v3.291992h3.585938v0.545898h-4.230469v-7.858398h4.160156
			l-0.083984,0.546875H485.760254z"/>
		<path d="M491.625977,806.628906l-0.742676,2.170898h-0.658203l2.80127-7.858398h0.784668l2.787598,7.858398h-0.686523
			l-0.742676-2.170898H491.625977z M493.404785,801.473633l-1.583008,4.608398h3.165527L493.404785,801.473633z"/>
		<path d="M504.887695,808.799805l-0.40625-3.795898c-0.182617-1.65332-0.238281-2.395508-0.294922-3.459961l-2.18457,6.317383
			h-0.629883l-2.213867-6.345703c-0.02832,0.798828-0.182617,2.227539-0.293945,3.431641L498.5,808.799805h-0.616211
			l0.8125-7.858398h0.853516l2.143555,6.233398l2.143555-6.233398h0.854492l0.8125,7.858398H504.887695z"/>
		<path d="M516.379883,801.698242l-0.364258,0.419922c-0.616211-0.545898-1.204102-0.742188-2.044922-0.742188
			c-1.092773,0-1.779297,0.518555-1.779297,1.344727c0,0.839844,0.490234,1.176758,1.905273,1.568359
			c1.541016,0.43457,2.493164,0.953125,2.493164,2.339844c0,1.400391-1.092773,2.296875-2.731445,2.296875
			c-1.162109,0-2.017578-0.40625-2.689453-0.994141l0.364258-0.420898c0.602539,0.490234,1.288086,0.854492,2.311523,0.854492
			c1.232422,0,2.072266-0.601563,2.072266-1.708984c0-1.007813-0.574219-1.400391-2.072266-1.820313
			c-1.666992-0.462891-2.326172-1.008789-2.326172-2.086914c0-1.121094,0.953125-1.933594,2.4375-1.933594
			C515.077148,800.81543,515.749023,801.137695,516.379883,801.698242z"/>
		<path d="M519.023438,808.799805v-7.858398h0.644531v7.858398H519.023438z"/>
		<path d="M527.411133,808.799805l-4.005859-7.227539c0.042969,0.616211,0.083984,1.316406,0.083984,2.829102v4.398438h-0.601563
			v-7.858398h0.839844l4.020508,7.242188c-0.041992-0.448242-0.083984-1.386719-0.083984-2.521484v-4.720703h0.602539v7.858398
			H527.411133z"/>
		<path d="M536.288086,801.543945l-0.350586,0.419922c-0.560547-0.40625-1.008789-0.587891-1.708984-0.587891
			c-1.470703,0-2.704102,0.994141-2.704102,3.487305c0,2.381836,1.191406,3.488281,2.675781,3.488281
			c0.854492,0,1.331055-0.280273,1.834961-0.658203l0.350586,0.43457c-0.518555,0.461914-1.205078,0.797852-2.212891,0.797852
			c-1.891602,0-3.320313-1.415039-3.320313-4.0625c0-2.674805,1.512695-4.047852,3.347656-4.047852
			C535.15332,800.81543,535.713867,801.095703,536.288086,801.543945z"/>
		<path d="M538.973633,801.488281v2.941406h2.96875v0.532227h-2.96875v3.291992h3.585938v0.545898h-4.230469v-7.858398h4.160156
			l-0.083984,0.546875H538.973633z"/>
	</g>
</g>
<g id="Layer_6">
	<polygon fill="#C7B299" points="530.866211,698 495.862305,708.166992 461.227539,698 430.150879,557.87793 407.630859,416.470703 
		495.861328,410.779297 585.102539,416.470703 562.207031,558.775391 	"/>
</g>
<g id="Layer_1">
	<g opacity="0.9">
		<path fill-rule="evenodd" clip-rule="evenodd" d="M450.721191,427.630859c11.12207,0,22.244141-0.067383,33.364258,0.057617
			c2.177734,0.025391,4.408203,0.602539,6.507813,1.264648c8.572754,2.704102,3.22168,3.120117,12.10791-0.151367
			c1.713867-0.630859,3.600586-1.115234,5.40918-1.119141c22.619141-0.046875,45.237305-0.017578,67.855469,0.052734
			c6.195313,0.020508,9,2.771484,9.05957,8.892578c0.085938,8.996094,0.125,17.996094-0.004883,26.991211
			c-0.150391,10.424805-8.152344,18.574219-18.5625,18.727539c-12.369141,0.183594-24.749023-0.192383-37.111328,0.138672
			c-13.00293,0.34668-18.173828-5.871094-22.015625-15.453125c-1.719727-4.288086-3.084961-8.720703-4.873047-12.976563
			c-0.905273-2.155273-2.200195-4.222656-3.675781-6.041016c-1.541992-1.904297-3.061035-1.825195-4.771973-0.0625
			c-0.944336,0.974609-1.849609,2.097656-2.40625,3.319336c-2.68457,5.896484-5.576172,11.730469-7.766602,17.813477
			c-2.772461,7.700195-9.109375,13.126953-17.277344,13.233398c-13.743164,0.180664-27.493164,0.209961-41.235352-0.003906
			c-9.835938-0.15332-17.69043-7.944336-18.056641-18.020508c-0.344727-9.484375-0.213867-18.994141-0.013672-28.486328
			c0.117188-5.515625,3.018555-8.113281,8.601563-8.146484c11.621094-0.066406,23.243164-0.019531,34.865234-0.019531
			C450.721191,427.637695,450.721191,427.633789,450.721191,427.630859z"/>
		<path fill-rule="evenodd" clip-rule="evenodd" d="M560.68457,574.657227
			c-0.796875-7.053711-2.050781-14.076172-2.441406-21.150391c-0.695313-12.542969-5.755859-22.600586-15.832031-30.050781
			c-6.246094-4.618164-13.455078-7.375-21.001953-8.523438c-8.351563-1.270508-16.857422-1.509766-25.584473-2.220703
			c-8.504395,0.712891-17.316895,0.768555-25.83252,2.387695c-6.376953,1.212891-12.835938,3.648438-18.442383,6.932617
			c-11.853516,6.944336-17.74707,17.988281-18.249023,31.669922c-0.21582,5.876953-0.638672,11.625-1.880859,17.417969
			c-2.514648,11.729492-1.601563,23.362305,2.671875,34.635742c2.110352,5.566406,5.076172,10.644531,9.864258,14.324219
			c2.253906,1.731445,4.999023,2.804688,7.37793,4.392578c9.868164,6.584961,19.744141,13.163086,29.49707,19.917969
			c8.754883,6.0625,21.65625,5.859375,30.318359-0.249023c10.611328-7.482422,21.326172-14.837891,32.277344-21.806641
			c5.615234-3.573242,9.736328-8.099609,12.521484-13.999023C561.016602,597.605469,561.993164,586.283203,560.68457,574.657227z
			 M533.475586,571.661133c-2.332031,0.75-4.908203,0.738281-6.994141,1.025391
			c-2.53125-0.272461-4.652344-0.410156-6.740234-0.74707c-3.693359-0.595703-6.234375-2.19043-7.316406-6.307617
			c-1.603516-6.099609-6.386719-9.451172-12.710938-9.743164c-2.617188-0.121094-5.249023-0.115234-7.866211-0.008789
			c-6.764648,0.27832-11.68457,3.957031-13.213867,10.613281c-0.831055,3.621094-2.917969,5.334961-6.104492,5.435547
			c-4.825195,0.152344-9.794922,0.31543-14.479492-0.631836c-8.77832-1.775391-15.055664-10.666992-14.561523-19.678711
			c0.135742-2.482422,0.545898-4.967773,1.049805-7.40625c0.761719-3.681641,2.043945-4.342773,5.824219-4.085938
			c11.069336,0.75293,22.152344,1.314453,33.222656,2.05957c4.041016,0.272461,6.768555-1.189453,8.045898-5.110352
			c0.077148-0.235352,0.169922-0.5,0.339844-0.663086c1.282227-1.237305,2.584473-3.40625,3.883301-3.40918
			c1.302246-0.001953,2.689941,2.092773,3.875488,3.414063c0.646484,0.720703,0.982422,1.729492,1.40625,2.633789
			c1.013672,2.157227,2.671875,3.105469,5.070313,3.107422c11.226563,0.008789,22.458984,0.458008,33.583984-1.768555
			c5.138672-1.029297,6.451172,0.054688,7.1875,5.31543c0.396484,2.835938,0.837891,5.723633,0.71875,8.564453
			C547.321289,563.249023,543.541992,568.421875,533.475586,571.661133z"/>
	</g>
</g>
<g id="Layer_9">
	<g>
		<path fill-rule="evenodd" clip-rule="evenodd" fill="#0367A6" d="M398.116211,394
			c-5.239746-3.05957-6.030762-32.232422-3.708496-49.207031c2.174805-15.892578,6.211426-29.414063,15.859863-42.458984
			c15.974609-21.597656,38.496094-32.283203,63.789063-37.989258c14.648438-3.301758,29.572266-5.368164,44.287109-8.397461
			c5.3125-1.095703,10.511719-3.066406,15.539063-5.168945c21.692383-9.067383,37.693359-22.498535,38.371094-48.370117
			c0.043945-1.683105-0.03418-4.056641,0.855469-4.321289c1.734375-0.516113,2.757813,1.848633,3.451172,3.060547
			c24.433594,42.702148,7,109.726563-34.994141,134.415039c-17.125,10.068359-36.169922,14.248047-55.509766,17.172852
			c-24.786133,3.748047-47.455078,12.75-67.876953,27.140625c-4.941406,3.484375-8.769531,8.535156-13.171875,12.801758
			C403.842773,393.805664,401.32959,395.875977,398.116211,394z"/>
		<path fill-rule="evenodd" clip-rule="evenodd" fill="#1092D0" d="M410.803711,284.875
			c-1.9375-0.6875-2.044434-3.484375-2.555664-6.678711c-2.351074-14.689453-1.888672-28.060547,1.12207-41.370117
			c5.84082-25.828125,21.229492-44.410156,45.547852-54.300781c12.813477-5.208984,26.768555-7.785156,40.375-10.806641
			c10.466797-2.324219,17.053711-2.972168,21.670898-13.621582c2.558594-5.890625,4.939453-12.560547-1.347656-18.847168
			s-29.666504-4.083008-33.875,3.875c-3.468262,6.558105-2.14502,7.895508-4.416504,9
			c-2.635254,1.28125-5.038574-2.458008-7.110352-5.603027c-3.166504-4.807129-5.178711-10.86084-4.98291-14.20752
			C466.305664,114.017578,492.466309,105,502.363281,105c12.835938,0,22.620117-0.683594,38.870117,13.48291
			s30.540039,48.648926,24.731445,81.57666c-3.111328,17.647461-14.242188,29.836914-29.875,38.167969
			c-14.179688,7.55957-29.695313,9.669922-45.291016,11.973633c-11.780273,1.741211-23.5625,4.033203-35.03125,7.209961
			c-15.374023,4.260254-29.174805,11.40918-40.563965,24.291504C413.473633,283.65918,412.362793,285.427734,410.803711,284.875z"/>
		<path fill-rule="evenodd" clip-rule="evenodd" fill="#1C418C" d="M586.366211,295.4375
			c2.661133,0,3.579102,2.149414,5.222656,4.768555c17.853516,28.446289,13.053711,83.799805-10.735352,95.52832
			c-7.574219-5.007813-15.541016-6.588867-24.257813-0.804688c-4.626953,3.067383-9.953125,1.166016-14.519531-1.710938
			c-5.695313-3.585938-11.087891-4.333984-17.095703-0.111328c-5.078125,3.571289-10.953125,3.450195-16.630859,0.773438
			c-6.814453-3.208984-13.375-4.145508-20.466797-0.056641c-4.927734,2.844727-10.477539,2.331055-15.767578-0.325195
			c-6.085938-3.056641-12.044922-3.754883-18.470703,0.072266c-4.826172,2.875-10.30957,2.681641-15.798828,0.357422
			c-4.518555-1.910156-14.731445,2.592773-16.145996-1.761719c-1.046387-3.22168,9.120605-8.49707,13.23584-10.564453
			c19.402344-9.745117,40.185547-14.725586,61.433594-18.706055c17.453125-3.267578,34.382813-8.84375,49.867188-18
			c19.556641-11.570313,27.538086-20.766602,37.301758-45.21582C584.369141,297.597656,585.277344,295.4375,586.366211,295.4375z"/>
	</g>
	<g>
	</g>
	<g>
	</g>
	<g>
	</g>
	<g>
	</g>
	<g>
	</g>
	<g>
	</g>
	<g>
	</g>
	<g>
	</g>
	<g>
	</g>
	<g>
	</g>
	<g>
	</g>
	<g>
	</g>
	<g>
	</g>
	<g>
	</g>
	<g>
	</g>
</g>
</svg>
