<?xml version="1.0" encoding="utf-8"?>
<!-- Generator: Adobe Illustrator 16.0.0, SVG Export Plug-In . SVG Version: 6.00 Build 0)  -->
<!DOCTYPE svg PUBLIC "-//W3C//DTD SVG 1.1//EN" "http://www.w3.org/Graphics/SVG/1.1/DTD/svg11.dtd">
<svg version="1.1" xmlns="http://www.w3.org/2000/svg" xmlns:xlink="http://www.w3.org/1999/xlink" x="0px" y="0px"
	 width="850.389648px" height="566.929688px" viewBox="0 0 850.389648 566.929688"
	 enable-background="new 0 0 850.389648 566.929688" xml:space="preserve">
<g id="Layer_1">
	<g>
		<path fill-rule="evenodd" clip-rule="evenodd" d="M409.507324,278.208984
			c-6.507324-14.875488,76.268066,3.458008,145.880371,3.458008S708,262.000488,701.223633,278.700195
			c-3.557617,6.299805-9.688477,10.092773-13.702148,11.902344c-11.488281,5.182617-23.8125,7.416016-36.226563,9.101563
			c-13.893555,1.885742-27.853516,2.462891-41.871094,2.426758c-39.118164-0.102539-78.236328,0.070313-117.354492-0.080078
			c-19.931641-0.077148-39.65918-2.198242-58.930664-7.59375C426.729492,292.662109,413.681152,285.750977,409.507324,278.208984z"
			/>
		<path fill-rule="evenodd" clip-rule="evenodd" d="M511.125,336.686523c11.12207,0,22.244141-0.067383,33.364258,0.057617
			c2.177734,0.025391,4.408203,0.602539,6.507813,1.264648c8.571289,2.704102,3.22168,3.120117,12.105469-0.151367
			c1.713867-0.630859,3.600586-1.115234,5.40918-1.119141c22.619141-0.046875,45.237305-0.017578,67.855469,0.052734
			c6.195313,0.020508,9,2.771484,9.05957,8.892578c0.085938,8.996094,0.125,17.996094-0.004883,26.991211
			c-0.150391,10.424805-8.152344,18.574219-18.5625,18.727539c-12.369141,0.183594-24.749023-0.192383-37.111328,0.138672
			c-13.00293,0.34668-18.173828-5.871094-22.015625-15.453125c-1.719727-4.288086-3.084961-8.720703-4.873047-12.976563
			c-0.905273-2.155273-2.199219-4.222656-3.673828-6.041016c-1.541992-1.904297-3.060547-1.825195-4.771484-0.0625
			c-0.944336,0.974609-1.849609,2.097656-2.40625,3.319336c-2.68457,5.896484-5.576172,11.730469-7.766602,17.813477
			c-2.772461,7.700195-9.109375,13.126953-17.277344,13.233398c-13.743164,0.180664-27.493164,0.209961-41.235352-0.003906
			c-9.835938-0.15332-17.69043-7.944336-18.056641-18.020508c-0.344727-9.484375-0.213867-18.994141-0.013672-28.486328
			c0.117188-5.515625,3.018555-8.113281,8.601563-8.146484c11.621094-0.066406,23.243164-0.019531,34.865234-0.019531
			C511.125,336.693359,511.125,336.689453,511.125,336.686523z"/>
		<path fill-rule="evenodd" clip-rule="evenodd" d="M623.428711,483.712891
			c-0.795898-7.053711-2.050781-14.076172-2.441406-21.150391c-0.694336-12.542969-5.755859-22.600586-15.832031-30.050781
			c-6.246094-4.618164-13.454102-7.375-21.001953-8.523438c-8.350586-1.270508-16.856445-1.509766-25.581055-2.220703
			c-8.503906,0.712891-17.316406,0.768555-25.832031,2.387695c-6.376953,1.212891-12.835938,3.648438-18.442383,6.932617
			c-11.853516,6.944336-17.74707,17.988281-18.249023,31.669922c-0.21582,5.876953-0.638672,11.625-1.880859,17.417969
			c-2.514648,11.729492-1.601563,23.362305,2.671875,34.635742c2.110352,5.566406,5.076172,10.644531,9.864258,14.324219
			c2.253906,1.731445,4.999023,2.804688,7.37793,4.392578c9.868164,6.584961,19.744141,13.163086,29.49707,19.917969
			c8.754883,6.0625,21.652344,5.859375,30.31543-0.249023c10.610352-7.482422,21.326172-14.837891,32.277344-21.806641
			c5.615234-3.573242,9.735352-8.099609,12.521484-13.999023C623.760742,506.661133,624.738281,495.338867,623.428711,483.712891z
			 M596.220703,480.716797c-2.332031,0.75-4.90918,0.738281-6.995117,1.025391
			c-2.53125-0.272461-4.652344-0.410156-6.740234-0.74707c-3.693359-0.595703-6.233398-2.19043-7.31543-6.307617
			c-1.603516-6.099609-6.386719-9.451172-12.711914-9.743164c-2.615234-0.121094-5.245117-0.115234-7.862305-0.008789
			c-6.764648,0.27832-11.68457,3.957031-13.213867,10.613281c-0.831055,3.621094-2.917969,5.334961-6.104492,5.435547
			c-4.825195,0.152344-9.794922,0.31543-14.479492-0.631836c-8.77832-1.775391-15.055664-10.666992-14.561523-19.678711
			c0.135742-2.482422,0.545898-4.967773,1.049805-7.40625c0.761719-3.681641,2.043945-4.342773,5.824219-4.085938
			c11.069336,0.75293,22.152344,1.314453,33.222656,2.05957c4.041016,0.272461,6.768555-1.189453,8.045898-5.110352
			c0.077148-0.235352,0.169922-0.5,0.339844-0.663086c1.282227-1.237305,2.583984-3.40625,3.882813-3.40918
			c1.300781-0.001953,2.6875,2.092773,3.873047,3.414063c0.645508,0.720703,0.982422,1.729492,1.40625,2.633789
			c1.012695,2.157227,2.670898,3.105469,5.069336,3.107422c11.226563,0.008789,22.459961,0.458008,33.583984-1.768555
			c5.139648-1.029297,6.452148,0.054688,7.1875,5.31543c0.396484,2.835938,0.838867,5.723633,0.719727,8.564453
			C610.06543,472.304688,606.287109,477.477539,596.220703,480.716797z"/>
	</g>
</g>
<g id="Layer_3">
	<g>
		<path fill-rule="evenodd" clip-rule="evenodd" d="M470.789063,263.78418c-4.15918-15.327637-6.526367-29.139648-4.53125-43.716309
			c1.867188-13.649414,5.489258-26.361816,13.775391-37.564941c13.719727-18.549805,33.060547-27.726563,54.783203-32.626953
			c12.579102-2.835938,25.393555-4.610352,38.030273-7.212402c4.5625-0.940918,9.026367-2.632813,13.34375-4.438477
			c19.842773-8.294434,34.138672-20.837891,32.899414-46.014648c1.900391,1.685059,3.157227,2.350098,3.75293,3.391113
			c20.984375,36.672363,6.011719,94.234375-30.052734,115.437988c-14.708008,8.645996-31.0625,12.236816-47.668945,14.749023
			c-21.286133,3.218262-40.753906,10.947754-58.292969,23.308594c-4.243164,2.991211-7.53125,7.32959-11.311523,10.993164
			C474.515625,261.058594,473.31543,261.827148,470.789063,263.78418z"/>
		<path fill-rule="evenodd" clip-rule="evenodd" d="M479.960938,170.17334c-3.75-16.020508-3.845703-30.015137-0.698242-43.930176
			c5.015625-22.181641,18.231445-38.140137,39.117188-46.634766c11.003906-4.472656,22.988281-6.685059,34.673828-9.280762
			c8.984375-1.995605,16.96875-4.879883,20.93457-14.025391c2.197266-5.058594,2.373047-10.186523,0.389648-15.424316
			c-3.12207-8.256836-10.222656-9.94873-16.387695-3.77002c-1.603516,1.605957-3.085938,3.339355-4.705078,5.100098
			c-6.00293-2.108887-6.852539-6.72998-6.573242-11.48584c0.921875-15.713379,16.863281-26.46875,31.649414-20.90332
			c5.31543,2.001953,10.975586,5.189941,14.511719,9.462891c18.108398,21.882324,25.858398,47.106934,20.870117,75.385742
			c-2.671875,15.155762-12.231445,25.624512-25.657227,32.778809c-12.177734,6.492188-25.501953,8.304688-38.891602,10.282715
			c-10.117188,1.495605-20.236328,3.463379-30.084961,6.192383C503.900391,148.135742,490.484375,155.641602,479.960938,170.17334z"
			/>
		<path fill-rule="evenodd" clip-rule="evenodd" d="M631.018555,174.563477
			c20.68457,21.472168,17.821289,77.152832-4.488281,88.152344c-6.505859-4.300293-13.34668-5.658203-20.833008-0.692383
			c-3.973633,2.63623-8.547852,1.00293-12.469727-1.468262c-4.891602-3.080566-9.522461-3.72168-14.681641-0.096191
			c-4.361328,3.066895-9.40625,2.963379-14.282227,0.665039c-5.850586-2.756836-11.483398-3.560059-17.574219-0.04834
			c-4.231445,2.443359-8.998047,2.001953-13.541016-0.279297c-5.226563-2.625488-10.34375-3.225098-15.862305,0.062012
			c-4.145508,2.467773-8.854492,2.302246-13.568359,0.306641c-3.880859-1.640137-8.101563-2.474121-13.6875-4.107422
			c4.322266-2.519043,7.65332-4.703613,11.1875-6.478516c16.663086-8.370117,34.511719-12.646973,52.759766-16.06543
			c14.985352-2.805176,29.525391-7.594727,42.823242-15.458496C615.027344,208.272461,621.546875,199.891602,631.018555,174.563477z
			"/>
	</g>
</g>
<g id="chemistry">
	<path d="M292,312v178H114V312H292 M303,301h-10.5h-178H103v10.5v178V501h11.5h178H303v-11.5v-178V301L303,301z"/>
	<g>
		<path d="M148.564453,481.082031v-19.040039h0.224121v19.040039H148.564453z"/>
		<path d="M166.288086,463.357422l-0.112305,0.167969c-1.063965-0.895508-2.211914-1.567383-4.199707-1.567383
			c-4.060059,0-7.056152,3.051758-7.056152,9.631836c0,6.21582,2.912109,9.519531,7,9.519531
			c2.240234,0,3.52832-0.839844,4.47998-1.651367l0.140137,0.195313c-0.97998,0.8125-2.352051,1.680664-4.620117,1.680664
			c-4.283691,0-7.223633-3.444336-7.223633-9.744141c0-6.664063,3.051758-9.828125,7.279785-9.828125
			C164.047852,461.761719,165.251953,462.461914,166.288086,463.357422z"/>
		<path d="M171.076172,462.238281v8.651367h7.223633v0.196289h-7.223633v9.771484h8.708008v0.224609h-8.932129v-19.040039h8.680176
			l-0.02832,0.196289H171.076172z"/>
		<path d="M195.631836,481.082031l-10.724121-18.788086c0.02832,0.727539,0.02832,1.763672,0.02832,3.5v15.288086h-0.224121
			v-19.040039h0.308105l10.695801,18.788086c0-1.148438-0.027832-2.688477-0.027832-4.144531v-14.643555h0.223633v19.040039
			H195.631836z"/>
		<path d="M214.027344,475.958008c0,3.723633-2.687988,5.124023-6.383789,5.124023h-4.563965v-19.040039h3.808105
			c3.919922,0,6.104004,1.652344,6.104004,4.675781c0,2.408203-1.708008,3.975586-3.864258,4.28418
			C211.731445,471.141602,214.027344,472.793945,214.027344,475.958008z M203.303711,470.889648h4.956055
			c2.631836,0,4.47998-1.791992,4.47998-4.171875c0-2.855469-2.016113-4.479492-5.796387-4.479492h-3.639648V470.889648z
			 M207.671387,480.857422c3.5,0,6.104004-1.288086,6.104004-4.899414c0-3.080078-2.268066-4.84375-5.375977-4.84375h-5.095703
			v9.743164H207.671387z"/>
		<path d="M219.62793,462.238281v8.651367h7.223633v0.196289h-7.223633v9.771484h8.708008v0.224609h-8.932129v-19.040039h8.680176
			l-0.02832,0.196289H219.62793z"/>
		<path d="M233.487305,471.813477v9.268555h-0.224121v-19.040039h3.947754c4.452148,0,6.076172,1.875977,6.076172,4.899414
			c0,3.332031-2.268066,4.648438-4.647949,4.844727l5.403809,9.295898h-0.307617l-5.320313-9.268555H233.487305z
			 M238.079102,471.589844c2.631836,0,4.983887-1.316406,4.983887-4.648438c0-2.883789-1.511719-4.703125-5.879883-4.703125
			h-3.695801v9.351563H238.079102z"/>
		<path d="M259.331543,463.330078l-0.140137,0.167969c-1.315918-1.007813-2.631836-1.540039-4.368164-1.540039
			c-3.443848,0-7.083984,2.912109-7.083984,9.463867c0,6.355469,2.884277,9.6875,7.335938,9.6875
			c1.959961,0,3.416016-0.587891,4.536133-1.259766v-8.231445h-4.171875l-0.02832-0.224609h4.424316v8.568359
			c-1.231934,0.755859-2.828125,1.37207-4.760254,1.37207c-4.563965,0-7.55957-3.416016-7.55957-9.912109
			c0-6.635742,3.751953-9.660156,7.307617-9.660156C256.643555,461.761719,257.959473,462.293945,259.331543,463.330078z"/>
	</g>
	<g>
		<path d="M134.840332,337.120117v5.775391h-3.115234v-5.775391h-10.010742v-2.310547L128.75,319.12793l2.695313,1.120117
			l-6.335938,14.316406h6.650879l0.279785-6.299805h2.800293v6.299805h3.04541v2.555664H134.840332z"/>
		<path d="M153.950684,325.53418c0,4.375-2.800293,7.490234-9.976074,14.666016h10.536133l-0.385254,2.695313h-13.826172v-2.554688
			c8.260742-8.611328,10.291016-10.851563,10.291016-14.666992c0-2.450195-1.575195-3.885742-3.850586-3.885742
			c-1.959961,0-3.255371,0.770508-4.760254,2.555664l-2.17041-1.679688c1.890137-2.345703,4.165527-3.536133,7.105957-3.536133
			C151.220215,319.12793,153.950684,321.893555,153.950684,325.53418z"/>
	</g>
	<g>
		<path d="M240.175293,322.485352c0,1.871094-1.209961,2.993164-2.860352,3.388672
			c1.848633,0.175781,3.322754,1.342773,3.322754,3.564453c0,2.574219-1.958496,4.510742-5.016602,4.510742
			c-1.760742,0-3.300781-0.637695-4.422852-1.980469l1.231934-1.143555c0.924316,1.03418,1.936523,1.473633,3.124512,1.473633
			c1.848633,0,2.970703-1.143555,2.970703-2.881836c0-2.024414-1.144531-2.640625-2.926758-2.640625h-1.100098l0.242188-1.5625
			h0.748047c1.452148,0,2.662598-0.879883,2.662598-2.595703c0-1.386719-0.968262-2.245117-2.442383-2.245117
			c-1.166504,0-2.046387,0.396484-3.036621,1.320313l-1.056152-1.209961c1.254395-1.166016,2.618652-1.738281,4.202637-1.738281
			C238.635254,318.745117,240.175293,320.505859,240.175293,322.485352z"/>
		<path d="M246.004883,332.40918c0,0.858398-0.660156,1.540039-1.540527,1.540039c-0.85791,0-1.518066-0.681641-1.518066-1.540039
			c0-0.835938,0.660156-1.518555,1.518066-1.518555C245.344727,330.890625,246.004883,331.573242,246.004883,332.40918z"/>
		<path d="M249.568359,333.685547v-12.564453l-3.432129,2.09082l-0.880371-1.430664l4.554688-2.816406h1.782227v14.720703
			H249.568359z"/>
		<path d="M263.318848,322.485352c0,1.871094-1.209961,2.993164-2.860352,3.388672
			c1.848633,0.175781,3.322754,1.342773,3.322754,3.564453c0,2.574219-1.958496,4.510742-5.016602,4.510742
			c-1.760742,0-3.300781-0.637695-4.422852-1.980469l1.231934-1.143555c0.924316,1.03418,1.936523,1.473633,3.124512,1.473633
			c1.848633,0,2.970703-1.143555,2.970703-2.881836c0-2.024414-1.144531-2.640625-2.926758-2.640625h-1.100098l0.242188-1.5625
			h0.748047c1.452148,0,2.662598-0.879883,2.662598-2.595703c0-1.386719-0.968262-2.245117-2.442383-2.245117
			c-1.166504,0-2.046387,0.396484-3.036621,1.320313l-1.056152-1.209961c1.254395-1.166016,2.618652-1.738281,4.202637-1.738281
			C261.778809,318.745117,263.318848,320.505859,263.318848,322.485352z"/>
		<path d="M274.296875,322.485352c0,1.871094-1.209961,2.993164-2.860352,3.388672
			c1.848633,0.175781,3.322754,1.342773,3.322754,3.564453c0,2.574219-1.958496,4.510742-5.01709,4.510742
			c-1.759766,0-3.300293-0.637695-4.422363-1.980469l1.231934-1.143555c0.924316,1.03418,1.936523,1.473633,3.124512,1.473633
			c1.848633,0,2.970703-1.143555,2.970703-2.881836c0-2.024414-1.144043-2.640625-2.926758-2.640625h-1.100098l0.242188-1.5625
			h0.748047c1.452148,0,2.662598-0.879883,2.662598-2.595703c0-1.386719-0.968262-2.245117-2.442383-2.245117
			c-1.166504,0-2.046387,0.396484-3.036621,1.320313l-1.056152-1.209961c1.254395-1.166016,2.618652-1.738281,4.202637-1.738281
			C272.756836,318.745117,274.296875,320.505859,274.296875,322.485352z"/>
		<path d="M279.355957,333.905273l-1.848145-0.616211l5.302734-12.673828h-6.512695v-1.650391h8.559082v1.518555
			L279.355957,333.905273z"/>
	</g>
	<g>
		<path d="M196.760254,395.091797c0,17.478516-9.008301,28.027344-24.099609,28.027344
			c-15.01416,0-24.022461-10.241211-24.022461-28.027344c0-17.400391,9.008301-27.949219,24.022461-27.949219
			C187.751953,367.142578,196.760254,377.306641,196.760254,395.091797z M161.881348,395.091797
			c0,13.551758,3.849609,18.787109,10.779297,18.787109c7.237793,0,10.856445-5.235352,10.856445-18.787109
			c0-13.473633-3.695801-18.709961-10.856445-18.709961C165.577148,376.381836,161.881348,381.618164,161.881348,395.091797z"/>
		<path d="M256.511719,391.935547v29.874023h-12.165527v-27.794922c0-4.3125-1.616699-5.466797-3.464844-5.466797
			c-2.617676,0-4.46582,1.924805-6.236328,5.3125v27.949219h-12.165527v-27.794922c0-4.3125-1.617188-5.466797-3.464844-5.466797
			c-2.541016,0-4.46582,1.924805-6.236816,5.3125v27.949219h-12.165039v-40.884766h10.625l0.847168,4.774414
			c3.156738-4.003906,6.852539-6.083008,11.857422-6.083008c4.54248,0,8.084473,2.30957,9.624512,6.467773
			c3.233887-4.311523,7.006348-6.467773,12.242188-6.467773C252.123047,379.616211,256.511719,384.15918,256.511719,391.935547z"/>
	</g>
	<g>
		<path d="M168.84375,430.476563v8.691406h-2.115234v-8.392578c0-1.817383-0.73584-2.345703-1.908691-2.345703
			c-1.356445,0-2.276367,0.850586-3.081055,2.138672v8.599609h-2.115723v-12.118164h1.816406l0.184082,1.793945
			c0.827637-1.242188,2.115723-2.070313,3.702148-2.070313C167.556152,426.773438,168.84375,428.176758,168.84375,430.476563z"/>
		<path d="M181.999512,433.097656c0,3.748047-1.977539,6.34668-5.403809,6.34668c-3.449219,0-5.403809-2.483398-5.403809-6.324219
			c0-3.748047,1.977539-6.34668,5.426758-6.34668C180.068359,426.773438,181.999512,429.257813,181.999512,433.097656z
			 M173.46875,433.120117c0,3.150391,1.103516,4.62207,3.126953,4.62207c2.023926,0,3.127441-1.47168,3.127441-4.644531
			c0-3.150391-1.103516-4.62207-3.104492-4.62207C174.595215,428.475586,173.46875,429.947266,173.46875,433.120117z"/>
		<path d="M199.915527,430.476563v8.691406h-2.115723v-8.392578c0-1.817383-0.781738-2.345703-1.70166-2.345703
			c-1.310547,0-2.023438,0.850586-2.851074,2.138672v8.599609h-2.115723v-8.392578c0-1.817383-0.781738-2.345703-1.70166-2.345703
			c-1.310547,0-2.046387,0.850586-2.851074,2.138672v8.599609h-2.115723v-12.118164h1.816406l0.184082,1.770508
			c0.804688-1.21875,1.908691-2.046875,3.495117-2.046875c1.494629,0,2.598633,0.805664,3.058594,2.18457
			c0.873535-1.310547,1.977539-2.18457,3.609863-2.18457C198.60498,426.773438,199.915527,428.199219,199.915527,430.476563z"/>
		<path d="M217.419922,430.476563v8.691406h-2.115723v-8.392578c0-1.817383-0.73584-2.345703-1.908691-2.345703
			c-1.356445,0-2.276367,0.850586-3.081055,2.138672v8.599609h-2.115723v-12.118164h1.816406l0.184082,1.793945
			c0.827637-1.242188,2.115723-2.070313,3.702148-2.070313C216.131836,426.773438,217.419922,428.176758,217.419922,430.476563z"/>
		<path d="M230.575195,433.097656c0,3.748047-1.977539,6.34668-5.403809,6.34668c-3.449219,0-5.403809-2.483398-5.403809-6.324219
			c0-3.748047,1.977539-6.34668,5.426758-6.34668C228.644043,426.773438,230.575195,429.257813,230.575195,433.097656z
			 M222.044434,433.120117c0,3.150391,1.103516,4.62207,3.126953,4.62207c2.023926,0,3.127441-1.47168,3.127441-4.644531
			c0-3.150391-1.103516-4.62207-3.104492-4.62207C223.170898,428.475586,222.044434,429.947266,222.044434,433.120117z"/>
		<path d="M248.491699,430.476563v8.691406h-2.115723v-8.392578c0-1.817383-0.781738-2.345703-1.70166-2.345703
			c-1.310547,0-2.023438,0.850586-2.851074,2.138672v8.599609h-2.115723v-8.392578c0-1.817383-0.781738-2.345703-1.70166-2.345703
			c-1.310547,0-2.046387,0.850586-2.851074,2.138672v8.599609h-2.115723v-12.118164h1.816406l0.184082,1.770508
			c0.804688-1.21875,1.908691-2.046875,3.495117-2.046875c1.494629,0,2.598633,0.805664,3.058594,2.18457
			c0.873535-1.310547,1.977539-2.18457,3.609863-2.18457C247.181152,426.773438,248.491699,428.199219,248.491699,430.476563z"/>
	</g>
	<g>
	</g>
	<g>
	</g>
	<g>
	</g>
	<g>
	</g>
	<g>
	</g>
	<g>
	</g>
	<g>
	</g>
	<g>
	</g>
	<g>
	</g>
	<g>
	</g>
	<g>
	</g>
	<g>
	</g>
	<g>
	</g>
	<g>
	</g>
	<g>
	</g>
</g>
</svg>
